<svg width="17" height="13" viewBox="0 0 17 13" fill="none" xmlns="http://www.w3.org/2000/svg">
<path d="M13.9168 0.539975L6.16268 8.52477L3.18033 5.46084C3.01831 5.26641 2.81891 5.10858 2.59465 4.99716C2.37042 4.88575 2.12617 4.82298 1.87725 4.81314C1.62832 4.8033 1.3801 4.84638 1.14814 4.93978C0.916206 5.033 0.705544 5.17468 0.529386 5.35555C0.353247 5.5366 0.215407 5.75312 0.124545 5.99136C0.0336645 6.22961 -0.00826841 6.48456 0.00134741 6.74045C0.0109632 6.99614 0.071929 7.24702 0.180414 7.47746C0.288899 7.70772 0.442572 7.91272 0.631779 8.07911L4.87937 12.4615C5.04826 12.6336 5.24857 12.7697 5.46879 12.8622C5.68894 12.9545 5.92482 13.0015 6.16268 13C6.63679 12.9979 7.09119 12.8044 7.42792 12.4615L16.4653 3.17681C16.6347 3.00412 16.7692 2.79874 16.861 2.57253C16.9528 2.34625 17 2.10353 17 1.85839C17 1.61326 16.9528 1.37054 16.861 1.14426C16.7692 0.917973 16.6347 0.712596 16.4653 0.539975C16.1266 0.194123 15.6686 0 15.1911 0C14.7135 0 14.2555 0.194123 13.9168 0.539975Z" fill="white"/>
</svg>
